<svg id="Layer_1" data-name="Layer 1" xmlns="http://www.w3.org/2000/svg" viewBox="0 0 93.07 93.07"><defs><style>.cls-1{fill:#1763c0;}.cls-2{fill:#0a151b;}</style></defs><path class="cls-1" d="M47,88.61H45.71a4.67,4.67,0,0,0-2,0h-.66c-.82-.16-1.67-.1-2.5-.21a41.17,41.17,0,0,1-21.76-9.88A42,42,0,0,1,4.93,54.62c-.31-1.55-.35-3.13-.53-4.69v-.66a4.67,4.67,0,0,0,0-2V46a4.67,4.67,0,0,0,0-2v-.65c.17-.88.11-1.78.24-2.67a41.17,41.17,0,0,1,9.74-21.48A41.85,41.85,0,0,1,29,8.23,38.23,38.23,0,0,1,42,4.72c7.31-.57,14.45.19,21.22,3.25a43.07,43.07,0,0,1,10.56,6.66,41.82,41.82,0,0,1,11,14.52,37.9,37.9,0,0,1,3.61,14.53A49.16,49.16,0,0,1,87.89,54a42.25,42.25,0,0,1-17.6,27.3,41.12,41.12,0,0,1-18.23,7.07c-.91.12-1.84,0-2.75.2h-.49A4.2,4.2,0,0,0,47,88.61Z"/><path class="cls-1" d="M4.4,44a2.54,2.54,0,0,1,0,2Z"/><path class="cls-1" d="M4.4,47.3a2.54,2.54,0,0,1,0,2Z"/><path class="cls-1" d="M43.74,88.61a2.54,2.54,0,0,1,2,0Z"/><path class="cls-1" d="M47,88.61a2.1,2.1,0,0,1,1.8,0Z"/><path class="cls-2" d="M80.68,46.68A34.32,34.32,0,1,1,46.4,12.32,34.4,34.4,0,0,1,80.68,46.68Z"/><path class="cls-1" d="M50.15,55.58c0,3.88.06,7.76,0,11.64a3.74,3.74,0,0,1-5.82,3,3.85,3.85,0,0,1-1.75-3.48c0-4.15,0-8.31,0-12.46,0-3.44,0-6.88,0-10.32a3.49,3.49,0,0,1,2.35-3.33,3.64,3.64,0,0,1,4,.75,3.91,3.91,0,0,1,1.2,3.1c0,3.71,0,7.43,0,11.14Z"/><path class="cls-1" d="M51.44,27.61a5.08,5.08,0,1,1-5.08-5.1A5.13,5.13,0,0,1,51.44,27.61Z"/></svg>